<?xml version="1.0" encoding="UTF-8" standalone="no"?>
<!-- Created with Inkscape (http://www.inkscape.org/) -->

<svg xmlns:dc="http://purl.org/dc/elements/1.1/" xmlns:cc="http://creativecommons.org/ns#" xmlns:rdf="http://www.w3.org/1999/02/22-rdf-syntax-ns#" xmlns:svg="http://www.w3.org/2000/svg" xmlns="http://www.w3.org/2000/svg" xmlns:sodipodi="http://sodipodi.sourceforge.net/DTD/sodipodi-0.dtd" xmlns:inkscape="http://www.inkscape.org/namespaces/inkscape" width="210mm" height="297mm" id="svg2" version="1.1" inkscape:version="0.48.5 r10040" sodipodi:docname="art.svg">
  <defs id="defs4">
    <inkscape:path-effect effect="spiro" id="path-effect4369" is_visible="true" />
    <inkscape:path-effect effect="spiro" id="path-effect4369-2" is_visible="true" />
  </defs>
  <sodipodi:namedview id="base" pagecolor="#ffffff" bordercolor="#666666" borderopacity="1.0" inkscape:pageopacity="0.0" inkscape:pageshadow="2" inkscape:zoom="0.5" inkscape:cx="558.66845" inkscape:cy="303.94254" inkscape:document-units="px" inkscape:current-layer="layer1" showgrid="false" showguides="true" inkscape:guide-bbox="true" inkscape:window-width="1858" inkscape:window-height="1057" inkscape:window-x="54" inkscape:window-y="-8" inkscape:window-maximized="1" />
  <metadata id="metadata7">
    <rdf:RDF>
      <cc:Work rdf:about="">
        <dc:format>image/svg+xml</dc:format>
        <dc:type rdf:resource="http://purl.org/dc/dcmitype/StillImage" />
        <dc:title></dc:title>
      </cc:Work>
    </rdf:RDF>
  </metadata>
  <g inkscape:label="Capa 1" inkscape:groupmode="layer" id="layer1">
    <g id="g4574" transform="translate(168,-312)">
      <path inkscape:export-ydpi="450" inkscape:export-xdpi="450" inkscape:export-filename="C:\Users\gerard\Desktop\perestroika\core\assets\new\rana.png" transform="matrix(2.818171,0,0,2.8246832,-646.09579,-951.89324)" d="m 373.71875,593.59375 c -4.80376,0.23962 -8.9873,1.54625 -11.8125,3.40625 -2.8252,1.86 -4.28496,4.22802 -3.875,6.71875 0.40996,2.49076 2.68404,4.74967 6.09375,6.3125 3.40971,1.56283 7.9151,2.42711 12.71875,2.1875 4.80374,-0.23961 8.964,-1.54648 11.78125,-3.40625 2.81725,-1.85977 4.28508,-4.22729 3.875,-6.71875 -0.41012,-2.49148 -2.66074,-4.7498 -6.0625,-6.3125 -3.40176,-1.5627 -7.91511,-2.42711 -12.71875,-2.1875 z" id="path3914" style="fill:#377f30;fill-opacity:1;fill-rule:nonzero;stroke:none" inkscape:original="M 373.6875 593.21875 C 363.96373 593.70378 356.77519 598.42827 357.65625 603.78125 C 358.53731 609.13423 367.15123 613.07878 376.875 612.59375 C 386.59877 612.10872 393.75606 607.38423 392.875 602.03125 C 391.99386 596.6783 383.41121 592.73373 373.6875 593.21875 z " inkscape:radius="-0.38979262" sodipodi:type="inkscape:offset" />
      <path inkscape:export-ydpi="450" inkscape:export-xdpi="450" inkscape:export-filename="C:\Users\gerard\Desktop\perestroika\core\assets\new\rana.png" transform="matrix(2.9290172,0,0,2.7961463,-687.01625,-935.43555)" d="m 396.78571,591.1568 c 0,7.61857 -9.79378,13.79464 -21.875,13.79464 -12.08123,0 -21.875,-6.17607 -21.875,-13.79464 0,-7.61857 9.79377,-13.79464 21.875,-13.79464 12.08122,0 21.875,6.17607 21.875,13.79464 z" sodipodi:ry="13.794642" sodipodi:rx="21.875" sodipodi:cy="591.1568" sodipodi:cx="374.91071" id="path3867" style="fill:#4e9745;fill-opacity:1;fill-rule:nonzero;stroke:none" sodipodi:type="arc" />
      <path inkscape:export-ydpi="450" inkscape:export-xdpi="450" inkscape:export-filename="C:\Users\gerard\Desktop\perestroika\core\assets\new\rana.png" transform="matrix(3.4822642,0,0,2.7295905,-887.98017,-891.39626)" d="m 370.17857,579.68359 c 0,5.7201 -3.43781,10.35715 -7.67857,10.35715 -4.24076,0 -7.67857,-4.63705 -7.67857,-10.35715 0,-5.72009 3.43781,-10.35714 7.67857,-10.35714 4.24076,0 7.67857,4.63705 7.67857,10.35714 z" sodipodi:ry="10.357142" sodipodi:rx="7.6785712" sodipodi:cy="579.68359" sodipodi:cx="362.5" id="path3900" style="fill:#ececec;fill-opacity:1;fill-rule:nonzero;stroke:none" sodipodi:type="arc" />
      <path inkscape:export-ydpi="450" inkscape:export-xdpi="450" inkscape:export-filename="C:\Users\gerard\Desktop\perestroika\core\assets\new\rana.png" inkscape:connector-curvature="0" id="path3869" d="m 374.32804,662.65319 c -10.6749,0 -19.82158,6.71366 -24.01449,16.4245 l 48.11729,0 c -4.19119,-9.71573 -13.42459,-16.4245 -24.1028,-16.4245 z" style="fill:#4e9745;fill-opacity:1;fill-rule:nonzero;stroke:none" />
      <path inkscape:export-ydpi="450" inkscape:export-xdpi="450" inkscape:export-filename="C:\Users\gerard\Desktop\perestroika\core\assets\new\rana.png" inkscape:connector-curvature="0" id="path3895" d="m 356.93526,678.64275 c -0.61578,2.06422 -0.97132,4.26954 -0.97132,6.5699 0,11.31504 8.04982,20.43043 18.01094,20.43043 9.96105,0 18.0108,-9.11539 18.0108,-20.43043 0,-2.30036 -0.35508,-4.50568 -0.97112,-6.5699 l -34.0793,0 z" style="fill:#000000;fill-opacity:1;fill-rule:nonzero;stroke:none" />
      <rect inkscape:export-ydpi="450" inkscape:export-xdpi="450" inkscape:export-filename="C:\Users\gerard\Desktop\perestroika\core\assets\new\rana.png" y="774.18121" x="352.1976" height="5.0267096" width="118.99047" id="rect4036" style="fill:#377f30;fill-opacity:1;fill-rule:nonzero;stroke:none" />
      <rect inkscape:export-ydpi="450" inkscape:export-xdpi="450" inkscape:export-filename="C:\Users\gerard\Desktop\perestroika\core\assets\new\rana.png" y="750.61835" x="388.70627" height="28.553152" width="5.244072" id="rect4056" style="fill:#4e9745;fill-opacity:1;fill-rule:nonzero;stroke:none" />
      <rect inkscape:export-ydpi="450" inkscape:export-xdpi="450" inkscape:export-filename="C:\Users\gerard\Desktop\perestroika\core\assets\new\rana.png" y="750.65546" x="428.58804" height="28.553152" width="5.244072" id="rect4056-1" style="fill:#4e9745;fill-opacity:1;fill-rule:nonzero;stroke:none" />
      <rect inkscape:export-ydpi="450" inkscape:export-xdpi="450" inkscape:export-filename="C:\Users\gerard\Desktop\perestroika\core\assets\new\rana.png" y="777.75757" x="429.12259" height="11.104004" width="3.24633" id="rect4076" style="fill:#4e9745;fill-opacity:1;fill-rule:nonzero;stroke:none" />
      <rect inkscape:export-ydpi="450" inkscape:export-xdpi="450" inkscape:export-filename="C:\Users\gerard\Desktop\perestroika\core\assets\new\rana.png" y="774.18524" x="389.3931" height="15.63625" width="3.24633" id="rect4076-0" style="fill:#4e9745;fill-opacity:1;fill-rule:nonzero;stroke:none" />
      <rect inkscape:export-ydpi="450" inkscape:export-xdpi="450" inkscape:export-filename="C:\Users\gerard\Desktop\perestroika\core\assets\new\rana.png" transform="matrix(0.53678735,-0.84371757,0.88578753,0.46409099,0,0)" y="783.74536" x="-491.48935" height="16.846102" width="3.0238512" id="rect4076-0-4" style="fill:#4e9745;fill-opacity:1;fill-rule:nonzero;stroke:none" />
      <rect inkscape:export-ydpi="450" inkscape:export-xdpi="450" inkscape:export-filename="C:\Users\gerard\Desktop\perestroika\core\assets\new\rana.png" transform="matrix(0.53678735,-0.84371757,0.88578753,0.46409099,0,0)" y="748.64221" x="-510.16907" height="16.846102" width="3.0238512" id="rect4076-0-4-5" style="fill:#4e9745;fill-opacity:1;fill-rule:nonzero;stroke:none" />
      <rect inkscape:export-ydpi="450" inkscape:export-xdpi="450" inkscape:export-filename="C:\Users\gerard\Desktop\perestroika\core\assets\new\rana.png" transform="matrix(0.53678735,0.84371757,-0.88578753,0.46409099,0,0)" y="85.658257" x="871.6405" height="16.846102" width="3.0238512" id="rect4076-0-49" style="fill:#4e9745;fill-opacity:1;fill-rule:nonzero;stroke:none" />
      <rect inkscape:export-ydpi="450" inkscape:export-xdpi="450" inkscape:export-filename="C:\Users\gerard\Desktop\perestroika\core\assets\new\rana.png" transform="matrix(0.53678735,0.84371757,-0.88578753,0.46409099,0,0)" y="52.558681" x="890.03625" height="16.846102" width="3.0238512" id="rect4076-0-49-5" style="fill:#4e9745;fill-opacity:1;fill-rule:nonzero;stroke:none" />
      <path inkscape:export-ydpi="450" inkscape:export-xdpi="450" inkscape:export-filename="C:\Users\gerard\Desktop\perestroika\core\assets\new\rana.png" transform="matrix(3.4822642,0,0,2.7295905,-816.42938,-892.01652)" d="m 370.17857,579.68359 c 0,5.7201 -3.43781,10.35715 -7.67857,10.35715 -4.24076,0 -7.67857,-4.63705 -7.67857,-10.35715 0,-5.72009 3.43781,-10.35714 7.67857,-10.35714 4.24076,0 7.67857,4.63705 7.67857,10.35714 z" sodipodi:ry="10.357142" sodipodi:rx="7.6785712" sodipodi:cy="579.68359" sodipodi:cx="362.5" id="path3900-6" style="fill:#ececec;fill-opacity:1;fill-rule:nonzero;stroke:none" sodipodi:type="arc" />
      <path inkscape:export-ydpi="450" inkscape:export-xdpi="450" inkscape:export-filename="C:\Users\gerard\Desktop\perestroika\core\assets\new\rana.png" inkscape:connector-curvature="0" id="path3869-4" d="m 445.87884,662.03299 c -10.67478,0 -19.82145,6.71359 -24.01437,16.42443 l 48.11717,0 c -4.19107,-9.71573 -13.42447,-16.42443 -24.1028,-16.42443 z" style="fill:#4e9745;fill-opacity:1;fill-rule:nonzero;stroke:none" />
      <path inkscape:export-ydpi="450" inkscape:export-xdpi="450" inkscape:export-filename="C:\Users\gerard\Desktop\perestroika\core\assets\new\rana.png" inkscape:connector-curvature="0" id="path3895-8" d="m 428.48619,678.02255 c -0.61578,2.06421 -0.97132,4.26947 -0.97132,6.56977 0,11.31504 8.04982,20.43056 18.01087,20.43056 9.96105,0 18.01087,-9.11552 18.01087,-20.43056 0,-2.3003 -0.35508,-4.50556 -0.97119,-6.56977 l -34.07923,0 z" style="fill:#000000;fill-opacity:1;fill-rule:nonzero;stroke:none" />
      <path inkscape:export-ydpi="450" inkscape:export-xdpi="450" inkscape:export-filename="C:\Users\gerard\Desktop\perestroika\core\assets\new\rana.png" transform="matrix(2.8252333,0,0,2.5638257,-529.18861,-795.32864)" sodipodi:open="true" sodipodi:end="12.476" sodipodi:start="6.1928232" d="m 356.46028,611.48274 c 0.12114,1.33696 -0.86447,2.51897 -2.20142,2.64011 -1.33695,0.12114 -2.51896,-0.86447 -2.6401,-2.20142 -0.12114,-1.33695 0.86447,-2.51897 2.20142,-2.64011 1.33694,-0.12113 2.51895,0.86446 2.6401,2.2014" sodipodi:ry="2.4306796" sodipodi:rx="2.4306796" sodipodi:cy="611.70209" sodipodi:cx="354.03952" id="path3924" style="fill:#195817;fill-opacity:1;fill-rule:nonzero;stroke:none" sodipodi:type="arc" />
      <path inkscape:export-ydpi="450" inkscape:export-xdpi="450" inkscape:export-filename="C:\Users\gerard\Desktop\perestroika\core\assets\new\rana.png" transform="matrix(2.8252333,0,0,2.5638257,-647.45328,-795.30917)" sodipodi:open="true" sodipodi:end="12.476" sodipodi:start="6.1928232" d="m 356.46028,611.48274 c 0.12114,1.33696 -0.86447,2.51897 -2.20142,2.64011 -1.33695,0.12114 -2.51896,-0.86447 -2.6401,-2.20142 -0.12114,-1.33695 0.86447,-2.51897 2.20142,-2.64011 1.33694,-0.12113 2.51895,0.86446 2.6401,2.2014" sodipodi:ry="2.4306796" sodipodi:rx="2.4306796" sodipodi:cy="611.70209" sodipodi:cx="354.03952" id="path3924-0" style="fill:#195817;fill-opacity:1;fill-rule:nonzero;stroke:none" sodipodi:type="arc" />
      <path inkscape:export-ydpi="450" inkscape:export-xdpi="450" inkscape:export-filename="C:\Users\gerard\Desktop\perestroika\core\assets\new\rana.png" transform="matrix(2.8252333,0,0,2.5638257,-617.28217,-796.16413)" sodipodi:open="true" sodipodi:end="12.476" sodipodi:start="6.1928232" d="m 363.71301,616.76114 c 0.0617,0.68063 -0.44009,1.28238 -1.12072,1.34405 -0.68063,0.0617 -1.28239,-0.44009 -1.34406,-1.12072 -0.0617,-0.68063 0.4401,-1.28238 1.12073,-1.34406 0.68062,-0.0617 1.28237,0.44009 1.34405,1.12072" sodipodi:ry="1.2374369" sodipodi:rx="1.2374369" sodipodi:cy="616.8728" sodipodi:cx="362.48062" id="path3944" style="fill:#195817;fill-opacity:1;fill-rule:nonzero;stroke:none" sodipodi:type="arc" />
      <path inkscape:export-ydpi="450" inkscape:export-xdpi="450" inkscape:export-filename="C:\Users\gerard\Desktop\perestroika\core\assets\new\rana.png" sodipodi:open="true" sodipodi:end="12.476" sodipodi:start="6.1928232" d="m 363.71301,616.76114 c 0.0617,0.68063 -0.44009,1.28238 -1.12072,1.34405 -0.68063,0.0617 -1.28239,-0.44009 -1.34406,-1.12072 -0.0617,-0.68063 0.4401,-1.28238 1.12073,-1.34406 0.68062,-0.0617 1.28237,0.44009 1.34405,1.12072" sodipodi:ry="1.2374369" sodipodi:rx="1.2374369" sodipodi:cy="616.8728" sodipodi:cx="362.48062" id="path3944-3" style="fill:#195817;fill-opacity:1;fill-rule:nonzero;stroke:none" sodipodi:type="arc" transform="matrix(2.8252333,0,0,2.5638257,-647.80196,-795.73566)" />
      <path inkscape:export-ydpi="450" inkscape:export-xdpi="450" inkscape:export-filename="C:\Users\gerard\Desktop\perestroika\core\assets\new\rana.png" transform="matrix(2.8252333,0,0,2.5638257,-632.93744,-790.71557)" sodipodi:open="true" sodipodi:end="12.476" sodipodi:start="6.1928232" d="m 363.71301,616.76114 c 0.0617,0.68063 -0.44009,1.28238 -1.12072,1.34405 -0.68063,0.0617 -1.28239,-0.44009 -1.34406,-1.12072 -0.0617,-0.68063 0.4401,-1.28238 1.12073,-1.34406 0.68062,-0.0617 1.28237,0.44009 1.34405,1.12072" sodipodi:ry="1.2374369" sodipodi:rx="1.2374369" sodipodi:cy="616.8728" sodipodi:cx="362.48062" id="path3944-4" style="fill:#195817;fill-opacity:1;fill-rule:nonzero;stroke:none" sodipodi:type="arc" />
      <path inkscape:export-ydpi="450" inkscape:export-xdpi="450" inkscape:export-filename="C:\Users\gerard\Desktop\perestroika\core\assets\new\rana.png" transform="matrix(2.8252333,0,0,2.5638257,-608.00079,-796.00349)" sodipodi:open="true" sodipodi:end="12.476" sodipodi:start="6.1928232" d="m 363.71301,616.76114 c 0.0617,0.68063 -0.44009,1.28238 -1.12072,1.34405 -0.68063,0.0617 -1.28239,-0.44009 -1.34406,-1.12072 -0.0617,-0.68063 0.4401,-1.28238 1.12073,-1.34406 0.68062,-0.0617 1.28237,0.44009 1.34405,1.12072" sodipodi:ry="1.2374369" sodipodi:rx="1.2374369" sodipodi:cy="616.8728" sodipodi:cx="362.48062" id="path3944-4-0" style="fill:#195817;fill-opacity:1;fill-rule:nonzero;stroke:none" sodipodi:type="arc" />
      <path inkscape:export-ydpi="450" inkscape:export-xdpi="450" inkscape:export-filename="C:\Users\gerard\Desktop\perestroika\core\assets\new\rana.png" transform="matrix(2.8252333,0,0,2.5638257,-577.60958,-796.24657)" sodipodi:open="true" sodipodi:end="12.476" sodipodi:start="6.1928232" d="m 363.71301,616.76114 c 0.0617,0.68063 -0.44009,1.28238 -1.12072,1.34405 -0.68063,0.0617 -1.28239,-0.44009 -1.34406,-1.12072 -0.0617,-0.68063 0.4401,-1.28238 1.12073,-1.34406 0.68062,-0.0617 1.28237,0.44009 1.34405,1.12072" sodipodi:ry="1.2374369" sodipodi:rx="1.2374369" sodipodi:cy="616.8728" sodipodi:cx="362.48062" id="path3944-4-0-0" style="fill:#195817;fill-opacity:1;fill-rule:nonzero;stroke:none" sodipodi:type="arc" />
      <path inkscape:export-ydpi="450" inkscape:export-xdpi="450" inkscape:export-filename="C:\Users\gerard\Desktop\perestroika\core\assets\new\rana.png" transform="matrix(2.8252333,0,0,2.5638257,-593.26748,-790.75444)" sodipodi:open="true" sodipodi:end="12.476" sodipodi:start="6.1928232" d="m 363.71301,616.76114 c 0.0617,0.68063 -0.44009,1.28238 -1.12072,1.34405 -0.68063,0.0617 -1.28239,-0.44009 -1.34406,-1.12072 -0.0617,-0.68063 0.4401,-1.28238 1.12073,-1.34406 0.68062,-0.0617 1.28237,0.44009 1.34405,1.12072" sodipodi:ry="1.2374369" sodipodi:rx="1.2374369" sodipodi:cy="616.8728" sodipodi:cx="362.48062" id="path3944-4-0-0-5" style="fill:#195817;fill-opacity:1;fill-rule:nonzero;stroke:none" sodipodi:type="arc" />
      <g inkscape:export-ydpi="450" inkscape:export-xdpi="450" inkscape:export-filename="C:\Users\gerard\Desktop\perestroika\core\assets\new\rana.png" transform="matrix(2.8252333,0,0,2.5638257,-973.38912,-809.69829)" id="g4392">
        <path style="fill:#000000;fill-opacity:1;stroke:#000000;stroke-width:0.11898067;stroke-linecap:butt;stroke-linejoin:miter;stroke-miterlimit:4;stroke-opacity:1;stroke-dasharray:none" d="m 487.85156,602.01575 -1.25,-0.0156 -0.39062,0.22657 0,0.625 0.4375,0.29687 1.21093,-0.0937 0.92188,1.03125 0.36719,1.82813 0.15625,-1.91407 -0.64063,-1.46093 -0.8125,-0.52352" id="path4367" inkscape:path-effect="#path-effect4369" inkscape:original-d="m 487.85156,602.01575 c -0.14844,-0.0391 -0.60937,-0.14839 -1.25,-0.0156 -0.26562,0.10157 -0.25781,0.0156 -0.39062,0.22657 -0.17187,0.35937 -0.17969,0.35156 0,0.625 l 0.4375,0.29687 1.21093,-0.0937 0.92188,1.03125 0.36719,1.82813 0.15625,-1.91407 -0.64063,-1.46093 z" inkscape:connector-curvature="0" sodipodi:nodetypes="ccccccccccc" />
        <path style="fill:#000000;fill-opacity:1;stroke:#000000;stroke-width:0.11898067;stroke-linecap:butt;stroke-linejoin:miter;stroke-miterlimit:4;stroke-opacity:1;stroke-dasharray:none" d="m 492.23939,602.01575 1.25,-0.0156 0.39062,0.22657 0,0.625 -0.4375,0.29687 -1.21093,-0.0937 -0.92188,1.03125 -0.36719,1.82813 -0.15625,-1.91407 0.64063,-1.46093 0.8125,-0.52352" id="path4367-1" inkscape:path-effect="#path-effect4369-2" inkscape:original-d="m 492.23939,602.01575 c 0.14844,-0.0391 0.60937,-0.14839 1.25,-0.0156 0.26562,0.10157 0.25781,0.0156 0.39062,0.22657 0.17187,0.35937 0.17969,0.35156 0,0.625 l -0.4375,0.29687 -1.21093,-0.0937 -0.92188,1.03125 -0.36719,1.82813 -0.15625,-1.91407 0.64063,-1.46093 z" inkscape:connector-curvature="0" sodipodi:nodetypes="ccccccccccc" />
      </g>
    </g>
    <g id="g4568" transform="translate(-42,-310)">
      <path inkscape:export-ydpi="101.82" inkscape:export-xdpi="101.82" inkscape:export-filename="C:\Users\gerard\Desktop\perestroika\core\assets\new\moneda.png" transform="translate(-0.70711828,3.9895924)" d="m 250.3158,651.43262 c 0,48.81553 -39.57281,88.38834 -88.38834,88.38834 -48.81553,0 -88.388344,-39.57281 -88.388344,-88.38834 0,-48.81554 39.572814,-88.38835 88.388344,-88.38835 48.81553,0 88.38834,39.57281 88.38834,88.38835 z" sodipodi:ry="88.388344" sodipodi:rx="88.388344" sodipodi:cy="651.43262" sodipodi:cx="161.92746" id="path4396" style="fill:#d4aa00;fill-opacity:1;fill-rule:nonzero;stroke:none" sodipodi:type="arc" />
      <rect inkscape:export-ydpi="101.82" inkscape:export-xdpi="101.82" inkscape:export-filename="C:\Users\gerard\Desktop\perestroika\core\assets\new\moneda.png" y="639.36761" x="72.832001" height="17.191534" width="6.0104079" id="rect4465" style="fill:#d4aa00;fill-opacity:1;fill-rule:nonzero;stroke:none" />
      <rect inkscape:export-ydpi="101.82" inkscape:export-xdpi="101.82" inkscape:export-filename="C:\Users\gerard\Desktop\perestroika\core\assets\new\moneda.png" y="637.86505" x="247.13382" height="17.633476" width="2.4306805" id="rect4467" style="fill:#d4aa00;fill-opacity:1;fill-rule:nonzero;stroke:none" />
      <path inkscape:export-ydpi="101.82" inkscape:export-xdpi="101.82" inkscape:export-filename="C:\Users\gerard\Desktop\perestroika\core\assets\new\moneda.png" d="m 250.3158,651.43262 c 0,48.81553 -39.57281,88.38834 -88.38834,88.38834 -48.81553,0 -88.388344,-39.57281 -88.388344,-88.38834 0,-48.81554 39.572814,-88.38835 88.388344,-88.38835 48.81553,0 88.38834,39.57281 88.38834,88.38835 z" sodipodi:ry="88.388344" sodipodi:rx="88.388344" sodipodi:cy="651.43262" sodipodi:cx="161.92746" id="path4396-4" style="fill:#ffcc00;fill-opacity:1;fill-rule:nonzero;stroke:none" sodipodi:type="arc" transform="translate(-0.70711828,-13.435007)" />
    </g>
    <g id="g4604" transform="translate(708,-444)">
      <path inkscape:export-ydpi="90" inkscape:export-xdpi="90" inkscape:export-filename="C:\Users\gerard\Desktop\perestroika\core\assets\new\cruz.png" inkscape:connector-curvature="0" d="m -432.74933,897.8655 100,0 0,17.59255 -100,0 z m 40.97222,-34.756 18.05556,0 0,141.1694 -18.05556,0 z" style="fill:#a05a2c;fill-opacity:1;fill-rule:nonzero;stroke:none" id="rect4440" />
      <path inkscape:export-ydpi="90" inkscape:export-xdpi="90" inkscape:export-filename="C:\Users\gerard\Desktop\perestroika\core\assets\new\cruz.png" d="m -432.74933,889.0349 100,0 0,17.59255 -100,0 z m 40.97222,-34.756 18.05556,0 0,141.16939 -18.05556,0 z" style="fill:#c87137;fill-opacity:1;fill-rule:nonzero;stroke:none" id="rect4440-5" inkscape:connector-curvature="0" />
    </g>
    <g id="g4560" transform="translate(698,-252)">
      <g id="g4531">
        <rect style="fill:#6ca147;fill-opacity:1;fill-rule:nonzero;stroke:none" id="rect4511" width="27.639816" height="15.404631" x="-225.1006" y="473.53513" inkscape:export-filename="C:\Users\gerard\Desktop\perestroika\core\assets\new\hoja.png" inkscape:export-xdpi="90" inkscape:export-ydpi="90" />
        <path sodipodi:type="arc" style="fill:#6ca147;fill-opacity:1;fill-rule:nonzero;stroke:none" id="path4469-0" sodipodi:cx="-224.85995" sodipodi:cy="281.61578" sodipodi:rx="231.93103" sodipodi:ry="79.195961" d="m -24.001791,321.21376 c -64.045986,37.87885 -205.892779,50.8571 -316.823679,28.98774 -110.9309,-21.86936 -148.93863,-70.30485 -84.89265,-108.1837 64.04599,-37.87884 205.89278,-50.85709 316.82368,-28.98773 35.257971,6.9509 64.536446,16.94842 84.892646,28.98773 l -200.858156,39.59798 z" transform="matrix(0.4620774,0,0,0.53399979,-186.33561,359.68173)" sodipodi:start="0.52359878" sodipodi:end="5.7595865" inkscape:export-filename="C:\Users\gerard\Desktop\perestroika\core\assets\new\hoja.png" inkscape:export-xdpi="90" inkscape:export-ydpi="90" />
        <rect style="fill:#6ca147;fill-opacity:1;fill-rule:nonzero;stroke:none" id="rect4509" width="5.8808117" height="15.970978" x="-397.40839" y="494.20679" inkscape:export-filename="C:\Users\gerard\Desktop\perestroika\core\assets\new\hoja.png" inkscape:export-xdpi="90" inkscape:export-ydpi="90" />
        <rect style="fill:#6ca147;fill-opacity:1;fill-rule:nonzero;stroke:none" id="rect4511-5" width="27.639816" height="15.404631" x="-225.1006" y="515.79541" inkscape:export-filename="C:\Users\gerard\Desktop\perestroika\core\assets\new\hoja.png" inkscape:export-xdpi="90" inkscape:export-ydpi="90" />
        <path sodipodi:type="arc" style="fill:#b2cf37;fill-opacity:1;fill-rule:nonzero;stroke:none" id="path4469-0-6" sodipodi:cx="-224.85995" sodipodi:cy="281.61578" sodipodi:rx="231.93103" sodipodi:ry="79.195961" d="m -24.001791,321.21376 c -64.045986,37.87885 -205.892779,50.8571 -316.823679,28.98774 -110.9309,-21.86936 -148.93863,-70.30485 -84.89265,-108.1837 64.04599,-37.87884 205.89278,-50.85709 316.82368,-28.98773 35.257971,6.9509 64.536446,16.94842 84.892646,28.98773 l -200.858156,39.59798 z" transform="matrix(0.4620774,0,0,0.53399979,-186.33561,344.2771)" sodipodi:start="0.52359878" sodipodi:end="5.7595865" inkscape:export-filename="C:\Users\gerard\Desktop\perestroika\core\assets\new\hoja.png" inkscape:export-xdpi="90" inkscape:export-ydpi="90" />
      </g>
    </g>
    <g id="g4556" transform="translate(616,-278)">
      <path inkscape:export-ydpi="89.718208" inkscape:export-xdpi="89.718208" inkscape:export-filename="C:\Users\gerard\Desktop\perestroika\core\assets\new\agua.png" transform="matrix(0.24728807,0,0,0.12970052,-412.8293,309.72181)" d="m 586.89862,316.26404 c 0,68.34175 -109.85413,123.74368 -245.36606,123.74368 -135.51193,0 -245.366056,-55.40193 -245.366056,-123.74368 0,-68.34175 109.854126,-123.74368 245.366056,-123.74368 135.51193,0 245.36606,55.40193 245.36606,123.74368 z" sodipodi:ry="123.74368" sodipodi:rx="245.36606" sodipodi:cy="316.26404" sodipodi:cx="341.53256" id="path4418-8-9" style="fill:none;stroke:#0e8fc9;stroke-width:67.00523376;stroke-miterlimit:4;stroke-opacity:1;stroke-dasharray:none;stroke-dashoffset:0" sodipodi:type="arc" />
      <path inkscape:export-ydpi="89.718208" inkscape:export-xdpi="89.718208" inkscape:export-filename="C:\Users\gerard\Desktop\perestroika\core\assets\new\agua.png" transform="matrix(0.38310107,0,0,0.35961431,-459.33359,237.72609)" d="m 586.89862,316.26404 c 0,68.34175 -109.85413,123.74368 -245.36606,123.74368 -135.51193,0 -245.366056,-55.40193 -245.366056,-123.74368 0,-68.34175 109.854126,-123.74368 245.366056,-123.74368 135.51193,0 245.36606,55.40193 245.36606,123.74368 z" sodipodi:ry="123.74368" sodipodi:rx="245.36606" sodipodi:cy="316.26404" sodipodi:cx="341.53256" id="path4418" style="fill:none;stroke:#0e8ecd;stroke-width:32.33003235;stroke-miterlimit:4;stroke-opacity:1;stroke-dasharray:none;stroke-dashoffset:0" sodipodi:type="arc" />
    </g>
  </g>
</svg>
